{
  "accessors": [
    {
      "bufferView": 1,
      "componentType": 5126,
      "count": 2943,
      "max": [
        7.5023651123046875,
        7.4689569473266602,
        26.432891845703125
      ],
      "min": [
        -7.514747142791748,
        -7.5116062164306641,
        0.30362498760223389
      ],
      "type": "VEC3"
    },
    {
      "bufferView": 1,
      "byteOffset": 35316,
      "componentType": 5126,
      "count": 2943,
      "max": [
        0.99994665384292603,
        0.99998778104782104,
        1
      ],
      "min": [
        -0.99771547317504883,
        -0.99941611289978027,
        -1
      ],
      "type": "VEC3"
    },
    {
      "bufferView": 2,
      "componentType": 5126,
      "count": 2943,
      "max": [
        0.99999797344207764,
        0.99663835763931274,
        0.9986303448677063,
        1
      ],
      "min": [
        -0.99999797344207764,
        -0.99983137845993042,
        -1,
        -1
      ],
      "type": "VEC4"
    },
    {
      "bufferView": 0,
      "componentType": 5125,
      "count": 11631,
      "max": [
        2942
      ],
      "min": [
        0
      ],
      "type": "SCALAR"
    },
    {
      "bufferView": 1,
      "byteOffset": 70632,
      "componentType": 5126,
      "count": 5618,
      "max": [
        2.1541121006011963,
        2.7740280628204346,
        7.5888857841491699
      ],
      "min": [
        -2.2484819889068604,
        -2.835191011428833,
        0
      ],
      "type": "VEC3"
    },
    {
      "bufferView": 1,
      "byteOffset": 138048,
      "componentType": 5126,
      "count": 5618,
      "max": [
        0.99999988079071045,
        0.99998778104782104,
        1
      ],
      "min": [
        -0.99999988079071045,
        -0.99998778104782104,
        -1
      ],
      "type": "VEC3"
    },
    {
      "bufferView": 2,
      "byteOffset": 47088,
      "componentType": 5126,
      "count": 5618,
      "max": [
        0.99913859367370605,
        0.99998962879180908,
        0.99583524465560913,
        1
      ],
      "min": [
        -0.99999850988388062,
        -0.99989420175552368,
        -0.99846881628036499,
        1
      ],
      "type": "VEC4"
    },
    {
      "bufferView": 0,
      "byteOffset": 46524,
      "componentType": 5125,
      "count": 18510,
      "max": [
        5617
      ],
      "min": [
        0
      ],
      "type": "SCALAR"
    }
  ],
  "asset": {
    "extras": {
      "author": "Thiago Nascimento Nogueira (https://sketchfab.com/tigago)",
      "license": "CC-BY-4.0 (http://creativecommons.org/licenses/by/4.0/)",
      "source": "https://sketchfab.com/models/77458bde70b94001b6ecc5a8893e8d59",
      "title": "Hot air Balloon (No texture, UV opened)"
    },
    "generator": "Sketchfab-3.18.5",
    "version": "2.0"
  },
  "bufferViews": [
    {
      "buffer": 0,
      "byteLength": 120564,
      "byteOffset": 0,
      "name": "floatBufferViews",
      "target": 34963
    },
    {
      "buffer": 0,
      "byteLength": 205464,
      "byteOffset": 120564,
      "byteStride": 12,
      "name": "floatBufferViews",
      "target": 34962
    },
    {
      "buffer": 0,
      "byteLength": 136976,
      "byteOffset": 326028,
      "byteStride": 16,
      "name": "floatBufferViews",
      "target": 34962
    }
  ],
  "buffers": [
    {
      "byteLength": 463004,
      "uri": "scene.bin"
    }
  ],
  "materials": [
    {
      "doubleSided": true,
      "emissiveFactor": [
        0,
        0,
        0
      ],
      "name": "initialShadingGroup1",
      "pbrMetallicRoughness": {
        "baseColorFactor": [
          1,
          1,
          1,
          1
        ],
        "metallicFactor": 0,
        "roughnessFactor": 0.59999999999999998
      }
    }
  ],
  "meshes": [
    {
      "primitives": [
        {
          "attributes": {
            "NORMAL": 1,
            "POSITION": 0,
            "TANGENT": 2
          },
          "indices": 3,
          "material": 0,
          "mode": 4
        }
      ]
    },
    {
      "primitives": [
        {
          "attributes": {
            "NORMAL": 5,
            "POSITION": 4,
            "TANGENT": 6
          },
          "indices": 7,
          "material": 0,
          "mode": 4
        }
      ]
    }
  ],
  "nodes": [
    {
      "children": [
        1
      ],
      "name": "RootNode (gltf orientation matrix)",
      "rotation": [
        -0.70710678118654746,
        -0,
        -0,
        0.70710678118654757
      ]
    },
    {
      "children": [
        2
      ],
      "name": "RootNode (model correction matrix)"
    },
    {
      "children": [
        3,
        4
      ],
      "name": "Baallon UV ready.obj.cleaner.materialmerger.gles"
    },
    {
      "mesh": 0,
      "name": ""
    },
    {
      "mesh": 1,
      "name": ""
    }
  ],
  "scene": 0,
  "scenes": [
    {
      "name": "OSG_Scene",
      "nodes": [
        0
      ]
    }
  ]
}

